<?xml version="1.0" standalone="no"?>
<!DOCTYPE svg PUBLIC "-//W3C//DTD SVG 20010904//EN"
 "http://www.w3.org/TR/2001/REC-SVG-20010904/DTD/svg10.dtd">
<svg version="1.0" xmlns="http://www.w3.org/2000/svg"
 width="700.000000pt" height="700.000000pt" viewBox="0 0 700.000000 700.000000"
 preserveAspectRatio="xMidYMid meet">
<metadata>
Created by potrace 1.11, written by Peter Selinger 2001-2013
</metadata>
<g transform="translate(0.000000,700.000000) scale(0.100000,-0.100000)"
fill="#000000" stroke="none">
<path d="M3355 6873 c-209 -44 -450 -201 -563 -366 -45 -65 -98 -179 -119
-257 -28 -104 -23 -281 11 -395 36 -120 83 -224 168 -375 160 -282 290 -475
409 -604 59 -65 186 -164 237 -185 30 -13 36 -11 89 20 76 45 223 191 311 309
149 200 370 589 432 759 33 90 60 227 60 303 0 67 -26 188 -57 266 -101 251
-368 468 -653 528 -84 18 -236 16 -325 -3z"/>
<path d="M1660 6163 c-194 -20 -396 -103 -535 -219 -145 -122 -261 -370 -287
-614 -19 -177 22 -352 116 -493 61 -92 191 -207 293 -260 193 -100 593 -212
918 -258 137 -19 335 -17 422 5 l71 18 18 71 c26 100 24 310 -5 474 -24 139
-127 559 -167 678 -33 99 -82 206 -121 263 -73 106 -208 219 -325 270 -101 44
-295 76 -398 65z"/>
<path d="M5163 6159 c-105 -13 -184 -37 -278 -84 -261 -129 -364 -297 -500
-819 -79 -304 -96 -400 -101 -596 -5 -148 -2 -186 13 -245 17 -67 20 -71 55
-82 150 -49 390 -37 739 37 564 120 828 262 963 520 57 110 78 190 83 330 8
210 -45 399 -161 574 -132 198 -338 320 -614 361 -106 16 -108 16 -199 4z"/>
<path d="M805 4404 c-143 -34 -219 -67 -321 -140 -176 -124 -331 -377 -365
-595 -14 -90 -6 -251 16 -334 21 -76 82 -207 132 -282 78 -118 216 -244 329
-301 107 -54 171 -67 329 -67 138 1 157 3 235 29 175 58 598 294 812 452 127
95 261 229 312 312 l37 62 -36 60 c-94 154 -305 332 -617 518 -226 135 -382
214 -502 254 -78 26 -109 31 -216 34 -69 1 -134 1 -145 -2z"/>
<path d="M5875 4386 c-157 -41 -349 -138 -656 -329 -264 -164 -476 -361 -540
-499 -10 -23 -7 -33 26 -84 50 -80 219 -244 335 -326 123 -87 418 -264 566
-339 175 -89 282 -120 430 -127 145 -6 234 11 345 64 190 91 332 239 429 447
63 134 75 192 74 357 0 140 -1 149 -35 247 -108 309 -343 537 -616 597 -106
23 -249 20 -358 -8z"/>
<path d="M2247 2709 c-175 -18 -617 -117 -802 -181 -269 -92 -435 -223 -535
-423 -56 -114 -74 -196 -73 -340 1 -395 216 -719 562 -845 193 -71 439 -80
604 -23 231 80 379 234 481 499 41 107 158 564 188 737 28 166 29 396 2 482
l-20 59 -69 18 c-87 22 -223 29 -338 17z"/>
<path d="M4472 2709 c-35 -4 -85 -15 -111 -24 -47 -15 -48 -17 -62 -73 -23
-95 -18 -382 9 -522 37 -189 140 -578 178 -675 122 -308 292 -472 556 -535
203 -49 481 -7 673 101 258 146 425 453 425 783 0 166 -41 304 -129 438 -130
196 -315 296 -741 401 -239 59 -419 94 -556 107 -122 11 -151 11 -242 -1z"/>
<path d="M3466 2285 c-134 -80 -257 -213 -401 -430 -194 -292 -347 -583 -386
-731 -87 -337 42 -650 354 -858 309 -206 659 -208 966 -6 217 142 349 340 383
574 30 210 -41 419 -274 811 -161 269 -273 420 -398 539 -59 55 -167 136 -183
136 -2 0 -29 -16 -61 -35z"/>
</g>
</svg>
